<?xml version="1.0" encoding="UTF-8"?>
<svg width="25px" height="16px" viewBox="0 0 25 16" version="1.1" xmlns="http://www.w3.org/2000/svg" xmlns:xlink="http://www.w3.org/1999/xlink">
    <!-- Generator: Sketch 51.2 (57519) - http://www.bohemiancoding.com/sketch -->
    <title>Combined Shape</title>
    <desc>Created with Sketch.</desc>
    <defs></defs>
    <g id="Page-1" stroke="none" stroke-width="1" fill="none" fill-rule="evenodd">
        <g id="Desktop" transform="translate(-1394.000000, -1122.000000)" fill="#FFFFFF" fill-rule="nonzero">
            <g id="Logo-List-Copy-6" transform="translate(1379.000000, 1112.000000)">
                <g id="Logo-List" transform="translate(15.500000, 10.000000)">
                    <path d="M3,6 C1.34314575,6 0,4.65685425 0,3 C0,1.34314575 1.34314575,0 3,0 C4.65685425,0 6,1.34314575 6,3 C6,4.65685425 4.65685425,6 3,6 Z M12,6 C10.3431458,6 9,4.65685425 9,3 C9,1.34314575 10.3431458,0 12,0 C13.6568542,0 15,1.34314575 15,3 C15,4.65685425 13.6568542,6 12,6 Z M21,6 C19.3431458,6 18,4.65685425 18,3 C18,1.34314575 19.3431458,0 21,0 C22.6568542,0 24,1.34314575 24,3 C24,4.65685425 22.6568542,6 21,6 Z M12,15.3076923 C10.3431458,15.3076923 9,13.9645466 9,12.3076923 C9,10.6508381 10.3431458,9.30769231 12,9.30769231 C13.6568542,9.30769231 15,10.6508381 15,12.3076923 C15,13.9645466 13.6568542,15.3076923 12,15.3076923 Z M3,15.3076923 C1.34314575,15.3076923 0,13.9645466 0,12.3076923 C0,10.6508381 1.34314575,9.30769231 3,9.30769231 C4.65685425,9.30769231 6,10.6508381 6,12.3076923 C6,13.9645466 4.65685425,15.3076923 3,15.3076923 Z M21,15.3076923 C19.3431458,15.3076923 18,13.9645466 18,12.3076923 C18,10.6508381 19.3431458,9.30769231 21,9.30769231 C22.6568542,9.30769231 24,10.6508381 24,12.3076923 C24,13.9645466 22.6568542,15.3076923 21,15.3076923 Z" id="Combined-Shape"></path>
                </g>
            </g>
        </g>
    </g>
</svg>